{
  "accessors": [
    {
      "bufferView": 2,
      "componentType": 5126,
      "count": 1875,
      "max": [
        0.5227367877960205,
        0.6775810122489929,
        0.1068187803030014
      ],
      "min": [
        -0.5530713796615601,
        0.017677949741482735,
        -0.18261297047138214
      ],
      "type": "VEC3"
    },
    {
      "bufferView": 2,
      "byteOffset": 22500,
      "componentType": 5126,
      "count": 1875,
      "max": [
        0.999076783657074,
        0.9996939897537231,
        0.9987586736679077
      ],
      "min": [
        -0.999950110912323,
        -0.9999291896820068,
        -0.9999563694000244
      ],
      "type": "VEC3"
    },
    {
      "bufferView": 1,
      "componentType": 5126,
      "count": 1875,
      "max": [
        0.9945999979972839,
        0.9918000102043152
      ],
      "min": [
        0.006800000090152025,
        0.007799983024597168
      ],
      "type": "VEC2"
    },
    {
      "bufferView": 0,
      "componentType": 5125,
      "count": 8274,
      "type": "SCALAR"
    },
    {
      "bufferView": 2,
      "byteOffset": 45000,
      "componentType": 5126,
      "count": 4508,
      "max": [
        0.8138135671615601,
        0.46697044372558594,
        0.1068415641784668
      ],
      "min": [
        -0.8776627779006958,
        0.18744561076164246,
        -0.12632396817207336
      ],
      "type": "VEC3"
    },
    {
      "bufferView": 2,
      "byteOffset": 99096,
      "componentType": 5126,
      "count": 4508,
      "max": [
        0.9997290968894958,
        0.999715268611908,
        0.9997285604476929
      ],
      "min": [
        -0.998568058013916,
        -0.9996257424354553,
        -0.9999600052833557
      ],
      "type": "VEC3"
    },
    {
      "bufferView": 1,
      "byteOffset": 15000,
      "componentType": 5126,
      "count": 4508,
      "max": [
        0.9980000257492065,
        0.9973000288009644
      ],
      "min": [
        0.005900000222027302,
        0.0009999871253967285
      ],
      "type": "VEC2"
    },
    {
      "bufferView": 0,
      "byteOffset": 33096,
      "componentType": 5125,
      "count": 23847,
      "type": "SCALAR"
    },
    {
      "bufferView": 2,
      "byteOffset": 153192,
      "componentType": 5126,
      "count": 2413,
      "max": [
        0.7850552201271057,
        0.39228811860084534,
        0.08792875707149506
      ],
      "min": [
        -0.8369112014770508,
        0.22483137249946594,
        -0.0971716120839119
      ],
      "type": "VEC3"
    },
    {
      "bufferView": 2,
      "byteOffset": 182148,
      "componentType": 5126,
      "count": 2413,
      "max": [
        0.9984170794487,
        0.9983497262001038,
        0.9995862245559692
      ],
      "min": [
        -0.9907177090644836,
        -0.9999769926071167,
        -0.999738872051239
      ],
      "type": "VEC3"
    },
    {
      "bufferView": 1,
      "byteOffset": 51064,
      "componentType": 5126,
      "count": 2413,
      "max": [
        2.5527000427246094,
        0.9922000169754028
      ],
      "min": [
        0.006899999920278788,
        0.007300019264221191
      ],
      "type": "VEC2"
    },
    {
      "bufferView": 0,
      "byteOffset": 128484,
      "componentType": 5125,
      "count": 11295,
      "type": "SCALAR"
    },
    {
      "bufferView": 2,
      "byteOffset": 211104,
      "componentType": 5126,
      "count": 1010,
      "max": [
        0.2637885808944702,
        0.1605442613363266,
        0.11922383308410645
      ],
      "min": [
        -0.20011748373508453,
        -0.1999267190694809,
        -0.18880143761634827
      ],
      "type": "VEC3"
    },
    {
      "bufferView": 2,
      "byteOffset": 223224,
      "componentType": 5126,
      "count": 1010,
      "max": [
        0.9992543458938599,
        0.9982567429542542,
        0.9998653531074524
      ],
      "min": [
        -0.9982849359512329,
        -0.9998951554298401,
        -0.999266505241394
      ],
      "type": "VEC3"
    },
    {
      "bufferView": 1,
      "byteOffset": 70368,
      "componentType": 5126,
      "count": 1010,
      "max": [
        0.9922000169754028,
        0.98089998960495
      ],
      "min": [
        0.014000000432133675,
        0.013199985027313232
      ],
      "type": "VEC2"
    },
    {
      "bufferView": 0,
      "byteOffset": 173664,
      "componentType": 5125,
      "count": 4476,
      "type": "SCALAR"
    },
    {
      "bufferView": 2,
      "byteOffset": 235344,
      "componentType": 5126,
      "count": 1928,
      "max": [
        0.20482701063156128,
        0.11304125934839249,
        0.09460465610027313
      ],
      "min": [
        -0.23519155383110046,
        -0.8686841130256653,
        -0.17921589314937592
      ],
      "type": "VEC3"
    },
    {
      "bufferView": 2,
      "byteOffset": 258480,
      "componentType": 5126,
      "count": 1928,
      "max": [
        0.9992179274559021,
        0.9996277093887329,
        0.9982258677482605
      ],
      "min": [
        -0.9984528422355652,
        -0.9988813996315002,
        -0.9997525811195374
      ],
      "type": "VEC3"
    },
    {
      "bufferView": 1,
      "byteOffset": 78448,
      "componentType": 5126,
      "count": 1928,
      "max": [
        0.9901999831199646,
        0.977400004863739
      ],
      "min": [
        0.009100000374019146,
        0.015600025653839111
      ],
      "type": "VEC2"
    },
    {
      "bufferView": 0,
      "byteOffset": 191568,
      "componentType": 5125,
      "count": 9930,
      "type": "SCALAR"
    },
    {
      "bufferView": 2,
      "byteOffset": 281616,
      "componentType": 5126,
      "count": 792,
      "max": [
        0.2318878471851349,
        -0.8039684295654297,
        0.1669737696647644
      ],
      "min": [
        -0.26198890805244446,
        -1.039933443069458,
        -0.17730861902236938
      ],
      "type": "VEC3"
    },
    {
      "bufferView": 2,
      "byteOffset": 291120,
      "componentType": 5126,
      "count": 792,
      "max": [
        0.9990129470825195,
        0.9981455206871033,
        0.9901725053787231
      ],
      "min": [
        -0.9987677931785583,
        -0.9999487996101379,
        -0.993604302406311
      ],
      "type": "VEC3"
    },
    {
      "bufferView": 1,
      "byteOffset": 93872,
      "componentType": 5126,
      "count": 792,
      "max": [
        1.9922000169754028,
        0.9908000230789185
      ],
      "min": [
        0.01679999940097332,
        0.007300019264221191
      ],
      "type": "VEC2"
    },
    {
      "bufferView": 0,
      "byteOffset": 231288,
      "componentType": 5125,
      "count": 3420,
      "type": "SCALAR"
    },
    {
      "bufferView": 2,
      "byteOffset": 300624,
      "componentType": 5126,
      "count": 2458,
      "max": [
        0.11370343714952469,
        0.8659208416938782,
        0.09153108298778534
      ],
      "min": [
        -0.129063218832016,
        0.49744877219200134,
        -0.15964996814727783
      ],
      "type": "VEC3"
    },
    {
      "bufferView": 2,
      "byteOffset": 330120,
      "componentType": 5126,
      "count": 2458,
      "max": [
        0.9988048672676086,
        0.9960469603538513,
        0.9999402761459351
      ],
      "min": [
        -0.9995864033699036,
        -0.9998409748077393,
        -0.998130202293396
      ],
      "type": "VEC3"
    },
    {
      "bufferView": 1,
      "byteOffset": 100208,
      "componentType": 5126,
      "count": 2458,
      "max": [
        0.989300012588501,
        0.9909999966621399
      ],
      "min": [
        0.007400000002235174,
        0.34029996395111084
      ],
      "type": "VEC2"
    },
    {
      "bufferView": 0,
      "byteOffset": 244968,
      "componentType": 5125,
      "count": 14109,
      "type": "SCALAR"
    },
    {
      "bufferView": 2,
      "byteOffset": 359616,
      "componentType": 5126,
      "count": 514,
      "max": [
        0.034881144762039185,
        0.7659454345703125,
        0.05722133442759514
      ],
      "min": [
        0.002685172250494361,
        0.7332746982574463,
        0.023969367146492004
      ],
      "type": "VEC3"
    },
    {
      "bufferView": 2,
      "byteOffset": 365784,
      "componentType": 5126,
      "count": 514,
      "max": [
        0.9993603229522705,
        0.9981671571731567,
        0.9860146641731262
      ],
      "min": [
        -0.9993566870689392,
        -0.9977437853813171,
        -0.9994695782661438
      ],
      "type": "VEC3"
    },
    {
      "bufferView": 1,
      "byteOffset": 119872,
      "componentType": 5126,
      "count": 514,
      "max": [
        1.3480000495910645,
        1.3450000286102295
      ],
      "min": [
        -0.29679998755455017,
        -0.2946000099182129
      ],
      "type": "VEC2"
    },
    {
      "bufferView": 0,
      "byteOffset": 301404,
      "componentType": 5125,
      "count": 2880,
      "type": "SCALAR"
    },
    {
      "bufferView": 2,
      "byteOffset": 371952,
      "componentType": 5126,
      "count": 516,
      "max": [
        -0.02765049785375595,
        0.7658405303955078,
        0.056047216057777405
      ],
      "min": [
        -0.059847019612789154,
        0.733156681060791,
        0.022846505045890808
      ],
      "type": "VEC3"
    },
    {
      "bufferView": 2,
      "byteOffset": 378144,
      "componentType": 5126,
      "count": 516,
      "max": [
        0.9998669028282166,
        0.9995504021644592,
        0.980015218257904
      ],
      "min": [
        -0.9998637437820435,
        -0.9993558526039124,
        -0.9998915791511536
      ],
      "type": "VEC3"
    },
    {
      "bufferView": 1,
      "byteOffset": 123984,
      "componentType": 5126,
      "count": 516,
      "max": [
        1.3480000495910645,
        1.3450000286102295
      ],
      "min": [
        -0.29679998755455017,
        -0.2946000099182129
      ],
      "type": "VEC2"
    },
    {
      "bufferView": 0,
      "byteOffset": 312924,
      "componentType": 5125,
      "count": 2880,
      "type": "SCALAR"
    },
    {
      "bufferView": 2,
      "byteOffset": 384336,
      "componentType": 5126,
      "count": 2315,
      "max": [
        0.10319575667381287,
        0.8834666609764099,
        0.13508853316307068
      ],
      "min": [
        -0.1256103366613388,
        0.6260126829147339,
        -0.14152678847312927
      ],
      "type": "VEC3"
    },
    {
      "bufferView": 2,
      "byteOffset": 412116,
      "componentType": 5126,
      "count": 2315,
      "max": [
        0.9999350905418396,
        0.9999750256538391,
        0.997976541519165
      ],
      "min": [
        -0.9997493028640747,
        -0.9996899366378784,
        -0.999909520149231
      ],
      "type": "VEC3"
    },
    {
      "bufferView": 1,
      "byteOffset": 128112,
      "componentType": 5126,
      "count": 2315,
      "max": [
        0.9976000189781189,
        0.9948999881744385
      ],
      "min": [
        0.005200000014156103,
        0.0054000020027160645
      ],
      "type": "VEC2"
    },
    {
      "bufferView": 0,
      "byteOffset": 324444,
      "componentType": 5125,
      "count": 10413,
      "type": "SCALAR"
    }
  ],
  "asset": {
    "extras": {
      "author": "David Campbell (https://sketchfab.com/david-campbell)",
      "license": "CC-BY-4.0 (http://creativecommons.org/licenses/by/4.0/)",
      "source": "https://sketchfab.com/3d-models/pubg-male-model-d45092e3358943c29c7d7f79ceffb0d0",
      "title": "Pubg Male Model"
    },
    "generator": "Sketchfab-12.67.0",
    "version": "2.0"
  },
  "bufferViews": [
    {
      "buffer": 0,
      "byteLength": 366096,
      "name": "floatBufferViews",
      "target": 34963
    },
    {
      "buffer": 0,
      "byteLength": 146632,
      "byteOffset": 366096,
      "byteStride": 8,
      "name": "floatBufferViews",
      "target": 34962
    },
    {
      "buffer": 0,
      "byteLength": 439896,
      "byteOffset": 512728,
      "byteStride": 12,
      "name": "floatBufferViews",
      "target": 34962
    }
  ],
  "buffers": [
    {
      "byteLength": 952624,
      "uri": "scene.bin"
    }
  ],
  "images": [
    {
      "uri": "textures/material_baseColor.png"
    },
    {
      "uri": "textures/material_1_baseColor.png"
    },
    {
      "uri": "textures/material_2_baseColor.png"
    },
    {
      "uri": "textures/material_3_baseColor.png"
    },
    {
      "uri": "textures/material_4_baseColor.png"
    },
    {
      "uri": "textures/material_0_baseColor.png"
    },
    {
      "uri": "textures/material_6_baseColor.png"
    },
    {
      "uri": "textures/material_7_baseColor.png"
    },
    {
      "uri": "textures/material_9_baseColor.png"
    }
  ],
  "materials": [
    {
      "doubleSided": true,
      "name": "material",
      "pbrMetallicRoughness": {
        "baseColorTexture": {
          "index": 0
        },
        "metallicFactor": 0.0,
        "roughnessFactor": 0.876432633514798
      }
    },
    {
      "doubleSided": true,
      "name": "material_1",
      "pbrMetallicRoughness": {
        "baseColorTexture": {
          "index": 1
        },
        "metallicFactor": 0.0,
        "roughnessFactor": 0.876432633514798
      }
    },
    {
      "doubleSided": true,
      "name": "material_2",
      "pbrMetallicRoughness": {
        "baseColorTexture": {
          "index": 2
        },
        "metallicFactor": 0.0,
        "roughnessFactor": 0.876432633514798
      }
    },
    {
      "doubleSided": true,
      "name": "material_3",
      "pbrMetallicRoughness": {
        "baseColorTexture": {
          "index": 3
        },
        "metallicFactor": 0.0,
        "roughnessFactor": 0.876432633514798
      }
    },
    {
      "doubleSided": true,
      "name": "material_4",
      "pbrMetallicRoughness": {
        "baseColorFactor": [
          0.835,
          0.835,
          0.835,
          1.0
        ],
        "baseColorTexture": {
          "index": 4
        },
        "metallicFactor": 0.0,
        "roughnessFactor": 0.876432633514798
      }
    },
    {
      "doubleSided": true,
      "name": "material_0",
      "pbrMetallicRoughness": {
        "baseColorTexture": {
          "index": 5
        },
        "metallicFactor": 0.013870395028850423,
        "roughnessFactor": 0.8650946378952873
      }
    },
    {
      "doubleSided": true,
      "name": "material_6",
      "pbrMetallicRoughness": {
        "baseColorTexture": {
          "index": 6
        },
        "metallicFactor": 0.0,
        "roughnessFactor": 0.876432633514798
      }
    },
    {
      "doubleSided": true,
      "name": "material_7",
      "pbrMetallicRoughness": {
        "baseColorTexture": {
          "index": 7
        },
        "metallicFactor": 0.0,
        "roughnessFactor": 0.876432633514798
      }
    },
    {
      "doubleSided": true,
      "name": "material_8",
      "pbrMetallicRoughness": {
        "baseColorTexture": {
          "index": 7
        },
        "metallicFactor": 0.0,
        "roughnessFactor": 0.876432633514798
      }
    },
    {
      "doubleSided": true,
      "name": "material_9",
      "pbrMetallicRoughness": {
        "baseColorTexture": {
          "index": 8
        },
        "metallicFactor": 0.0,
        "roughnessFactor": 0.11699999999999999
      }
    }
  ],
  "meshes": [
    {
      "name": "Skin_Mesh_1_0",
      "primitives": [
        {
          "attributes": {
            "NORMAL": 1,
            "POSITION": 0,
            "TEXCOORD_0": 2
          },
          "indices": 3,
          "material": 0,
          "mode": 4
        }
      ]
    },
    {
      "name": "Skin_Mesh_2_0",
      "primitives": [
        {
          "attributes": {
            "NORMAL": 5,
            "POSITION": 4,
            "TEXCOORD_0": 6
          },
          "indices": 7,
          "material": 1,
          "mode": 4
        }
      ]
    },
    {
      "name": "Skin_Mesh_3_0",
      "primitives": [
        {
          "attributes": {
            "NORMAL": 9,
            "POSITION": 8,
            "TEXCOORD_0": 10
          },
          "indices": 11,
          "material": 2,
          "mode": 4
        }
      ]
    },
    {
      "name": "Skin_Mesh_4_0",
      "primitives": [
        {
          "attributes": {
            "NORMAL": 13,
            "POSITION": 12,
            "TEXCOORD_0": 14
          },
          "indices": 15,
          "material": 3,
          "mode": 4
        }
      ]
    },
    {
      "name": "Skin_Mesh_5_0",
      "primitives": [
        {
          "attributes": {
            "NORMAL": 17,
            "POSITION": 16,
            "TEXCOORD_0": 18
          },
          "indices": 19,
          "material": 4,
          "mode": 4
        }
      ]
    },
    {
      "name": "Skin_Mesh_6_0",
      "primitives": [
        {
          "attributes": {
            "NORMAL": 21,
            "POSITION": 20,
            "TEXCOORD_0": 22
          },
          "indices": 23,
          "material": 5,
          "mode": 4
        }
      ]
    },
    {
      "name": "Skin_Mesh_7_0",
      "primitives": [
        {
          "attributes": {
            "NORMAL": 25,
            "POSITION": 24,
            "TEXCOORD_0": 26
          },
          "indices": 27,
          "material": 6,
          "mode": 4
        }
      ]
    },
    {
      "name": "Skin_Mesh_8_0",
      "primitives": [
        {
          "attributes": {
            "NORMAL": 29,
            "POSITION": 28,
            "TEXCOORD_0": 30
          },
          "indices": 31,
          "material": 7,
          "mode": 4
        }
      ]
    },
    {
      "name": "Skin_Mesh_9_0",
      "primitives": [
        {
          "attributes": {
            "NORMAL": 33,
            "POSITION": 32,
            "TEXCOORD_0": 34
          },
          "indices": 35,
          "material": 8,
          "mode": 4
        }
      ]
    },
    {
      "name": "Skin_Mesh_10_0",
      "primitives": [
        {
          "attributes": {
            "NORMAL": 37,
            "POSITION": 36,
            "TEXCOORD_0": 38
          },
          "indices": 39,
          "material": 9,
          "mode": 4
        }
      ]
    }
  ],
  "nodes": [
    {
      "children": [
        1
      ],
      "matrix": [
        1.0,
        0.0,
        0.0,
        0.0,
        0.0,
        1.0,
        2.220446049250313e-16,
        0.0,
        0.0,
        -2.220446049250313e-16,
        1.0,
        0.0,
        0.0,
        0.06731831282377242,
        0.08914542943239213,
        1.0
      ],
      "name": "Sketchfab_model"
    },
    {
      "children": [
        2
      ],
      "matrix": [
        1.0,
        0.0,
        0.0,
        0.0,
        0.0,
        0.0,
        1.0,
        0.0,
        0.0,
        -1.0,
        0.0,
        0.0,
        0.0,
        0.0,
        0.0,
        1.0
      ],
      "name": "3ff92d5337924ffdaf057faf52a26dbc.fbx"
    },
    {
      "children": [
        3,
        6,
        8
      ],
      "name": "RootNode"
    },
    {
      "children": [
        4
      ],
      "matrix": [
        -29.08647719990347,
        -5.518906457566863,
        -95.51711910171437,
        0.0,
        56.63930913109449,
        79.46723428563203,
        -21.83912397841966,
        0.0,
        77.11008775993375,
        -60.45246356562044,
        -19.98834696773717,
        0.0,
        407.6245422363281,
        590.38623046875,
        -100.54539489746094,
        1.0
      ],
      "name": "Light"
    },
    {
      "children": [
        5
      ],
      "matrix": [
        1.0,
        0.0,
        0.0,
        0.0,
        0.0,
        2.220446049250313e-16,
        1.0,
        0.0,
        0.0,
        -1.0,
        2.220446049250313e-16,
        0.0,
        0.0,
        0.0,
        0.0,
        1.0
      ],
      "name": "Object_4"
    },
    {
      "name": "Object_5"
    },
    {
      "children": [
        7
      ],
      "matrix": [
        -65.15583280329096,
        -44.52713576570858,
        -61.41703047373549,
        0.0,
        -32.40134137821245,
        89.53957451233616,
        -30.542088974418615,
        0.0,
        68.59205472129975,
        -1.0718647115348782e-05,
        -72.7676336239627,
        0.0,
        735.88916015625,
        495.8309326171875,
        692.5791015625,
        1.0
      ],
      "name": "Camera"
    },
    {
      "name": "Object_7"
    },
    {
      "children": [
        9,
        10,
        11,
        12,
        13,
        14,
        15,
        16,
        17,
        18
      ],
      "matrix": [
        2.5399999618530273,
        0.0,
        0.0,
        0.0,
        0.0,
        -4.138185194403211e-07,
        -2.5399999618529936,
        0.0,
        0.0,
        2.5399999618529936,
        -4.138185194403211e-07,
        0.0,
        0.0,
        0.0,
        0.0,
        1.0
      ],
      "name": "Skin_Mesh"
    },
    {
      "mesh": 0,
      "name": "Skin_Mesh_1_0"
    },
    {
      "mesh": 1,
      "name": "Skin_Mesh_2_0"
    },
    {
      "mesh": 2,
      "name": "Skin_Mesh_3_0"
    },
    {
      "mesh": 3,
      "name": "Skin_Mesh_4_0"
    },
    {
      "mesh": 4,
      "name": "Skin_Mesh_5_0"
    },
    {
      "mesh": 5,
      "name": "Skin_Mesh_6_0"
    },
    {
      "mesh": 6,
      "name": "Skin_Mesh_7_0"
    },
    {
      "mesh": 7,
      "name": "Skin_Mesh_8_0"
    },
    {
      "mesh": 8,
      "name": "Skin_Mesh_9_0"
    },
    {
      "mesh": 9,
      "name": "Skin_Mesh_10_0"
    }
  ],
  "samplers": [
    {
      "magFilter": 9729,
      "minFilter": 9987,
      "wrapS": 10497,
      "wrapT": 10497
    }
  ],
  "scene": 0,
  "scenes": [
    {
      "name": "Sketchfab_Scene",
      "nodes": [
        0
      ]
    }
  ],
  "textures": [
    {
      "sampler": 0,
      "source": 0
    },
    {
      "sampler": 0,
      "source": 1
    },
    {
      "sampler": 0,
      "source": 2
    },
    {
      "sampler": 0,
      "source": 3
    },
    {
      "sampler": 0,
      "source": 4
    },
    {
      "sampler": 0,
      "source": 5
    },
    {
      "sampler": 0,
      "source": 6
    },
    {
      "sampler": 0,
      "source": 7
    },
    {
      "sampler": 0,
      "source": 8
    }
  ]
}
